<?xml version="1.0" encoding="UTF-8"?>
<svg version="1.1" xmlns="http://www.w3.org/2000/svg" width="81" height="81">
<path d="M0 0 C26.73 0 53.46 0 81 0 C81 26.73 81 53.46 81 81 C54.27 81 27.54 81 0 81 C0 54.27 0 27.54 0 0 Z " fill="#FDFCFC" transform="translate(0,0)"/>
<path d="M0 0 C0.99 0.33 1.98 0.66 3 1 C1.43717018 4.76603869 -0.9063475 7.13639151 -3.7890625 9.984375 C-4.25234955 10.44483215 -4.7156366 10.90528931 -5.19296265 11.37969971 C-6.66565898 12.84125078 -8.14517403 14.29567168 -9.625 15.75 C-10.62806322 16.74302611 -11.63067257 17.73651089 -12.6328125 18.73046875 C-15.08330835 21.15897941 -17.5399667 23.58114675 -20 26 C-20.46543213 25.60022949 -20.93086426 25.20045898 -21.41040039 24.78857422 C-22.02906982 24.2576416 -22.64773926 23.72670898 -23.28515625 23.1796875 C-24.19986694 22.39440674 -24.19986694 22.39440674 -25.13305664 21.59326172 C-27.73603936 19.37185918 -30.36589799 17.18437727 -33 15 C-32.34 13.68 -31.68 12.36 -31 11 C-30.34 11 -29.68 11 -29 11 C-27.2734375 12.75 -27.2734375 12.75 -25.375 15 C-24.74335938 15.7425 -24.11171875 16.485 -23.4609375 17.25 C-22.73777344 18.11625 -22.73777344 18.11625 -22 19 C-18.11863416 18.44387545 -16.37243082 16.72326862 -13.671875 13.96484375 C-12.87265625 13.15595703 -12.0734375 12.34707031 -11.25 11.51367188 C-10.425 10.66353516 -9.6 9.81339844 -8.75 8.9375 C-7.90953125 8.08349609 -7.0690625 7.22949219 -6.203125 6.34960938 C-4.12852403 4.23964588 -2.06124168 2.12300292 0 0 Z " fill="#FB8706" transform="translate(56,28)"/>
</svg>
