<?xml version="1.0" encoding="UTF-8"?>
<svg version="1.1" xmlns="http://www.w3.org/2000/svg" width="82" height="81">
<path d="M0 0 C27.06 0 54.12 0 82 0 C82 26.73 82 53.46 82 81 C54.94 81 27.88 81 0 81 C0 54.27 0 27.54 0 0 Z " fill="#FCFCFC" transform="translate(0,0)"/>
<path d="M0 0 C3.96 0 7.92 0 12 0 C12.66 1.98 13.32 3.96 14 6 C19.28 6 24.56 6 30 6 C30 11.94 30 17.88 30 24 C20.1 24 10.2 24 0 24 C0 16.08 0 8.16 0 0 Z " fill="#FEFDFC" transform="translate(25,29)"/>
<path d="M0 0 C2.578125 -0.103125 5.15625 -0.20625 7.8125 -0.3125 C8.62050049 -0.35802002 9.42850098 -0.40354004 10.26098633 -0.45043945 C12.20703125 -0.48828125 12.20703125 -0.48828125 16 0 C16.4846875 0.8146875 16.969375 1.629375 17.46875 2.46875 C18.68715122 5.13530049 18.68715122 5.13530049 20.80932617 5.50512695 C23.1160807 5.71659863 25.3703173 5.79448687 27.6875 5.8125 C30.430625 5.874375 33.17375 5.93625 36 6 C36 13.92 36 21.84 36 30 C24.12 30 12.24 30 0 30 C0 20.1 0 10.2 0 0 Z M3 3 C3 10.92 3 18.84 3 27 C12.9 27 22.8 27 33 27 C33 21.06 33 15.12 33 9 C27.72 9 22.44 9 17 9 C16.34 7.02 15.68 5.04 15 3 C11.04 3 7.08 3 3 3 Z " fill="#FB8909" transform="translate(22,26)"/>
</svg>
