<?xml version="1.0" encoding="UTF-8"?>
<svg version="1.1" xmlns="http://www.w3.org/2000/svg" width="80" height="81">
<path d="M0 0 C26.4 0 52.8 0 80 0 C80 26.73 80 53.46 80 81 C53.6 81 27.2 81 0 81 C0 54.27 0 27.54 0 0 Z " fill="#FDFCFC" transform="translate(0,0)"/>
<path d="M0 0 C15.81399286 0 15.81399286 0 19.85473633 3.60864258 C20.35642334 4.15029053 20.85811035 4.69193848 21.375 5.25 C21.92244873 5.80905029 22.46989746 6.36810059 23.03393555 6.9440918 C27.46066104 12.13383133 28.03410303 17.14426337 27.8125 23.8125 C27.544375 26.844375 27.27625 29.87625 27 33 C18.09 33 9.18 33 0 33 C0 22.11 0 11.22 0 0 Z " fill="#FB921D" transform="translate(26,25)"/>
<path d="M0 0 C2.31 0 4.62 0 7 0 C7 4.29 7 8.58 7 13 C11.62 13 16.24 13 21 13 C21 17.29 21 21.58 21 26 C14.07 26 7.14 26 0 26 C0 17.42 0 8.84 0 0 Z " fill="#FEFDFC" transform="translate(29,28)"/>
<path d="M0 0 C6.75 5.625 6.75 5.625 9 9 C6.03 9 3.06 9 0 9 C0 6.03 0 3.06 0 0 Z " fill="#FEF5EB" transform="translate(39,29)"/>
</svg>
