<?xml version="1.0" encoding="UTF-8"?>
<svg version="1.1" xmlns="http://www.w3.org/2000/svg" width="163" height="160">
<path d="M0 0 C53.79 0 107.58 0 163 0 C163 52.8 163 105.6 163 160 C109.21 160 55.42 160 0 160 C0 107.2 0 54.4 0 0 Z " fill="#FDFCFC" transform="translate(0,0)"/>
<path d="M0 0 C4.10121655 2.35440209 6.42759954 4.62047508 8.375 8.9375 C9.33230057 13.21176307 8.7339609 16.77774477 6.8125 20.6875 C4.41757099 24.37265485 1.50612897 26.47945448 -2.625 27.9375 C-7.86464407 28.58096506 -11.20870877 27.81768993 -15.625 24.9375 C-18.89184375 22.09676631 -20.32473346 20.56475093 -21.109375 16.3125 C-21.33068264 11.78798827 -21.31829737 8.0956554 -18.4375 4.4375 C-12.27917653 -1.03656531 -8.13953254 -2.38572506 0 0 Z " fill="#FB8808" transform="translate(104.625,81.0625)"/>
<path d="M0 0 C4.81706073 2.3630864 7.6369136 5.18293927 10 10 C10.83393237 14.73979927 10.47162763 18.05674474 8.3125 22.375 C5.18653602 25.92339154 3.2314968 27.75766551 -1.58984375 28.28125 C-11.05520806 28.58617449 -11.05520806 28.58617449 -15 25 C-18.40838338 21.0389058 -19.62422643 18.06348051 -19.3125 12.94921875 C-18.55319424 8.21304907 -16.5020822 5.12933491 -12.875 2.125 C-8.70815359 -0.59710474 -4.84028647 -0.94509243 0 0 Z " fill="#FB8704" transform="translate(68,52)"/>
<path d="M0 0 C2.31 1.32 4.62 2.64 7 4 C5.64483009 6.84082004 4.12215438 9.42139 2.34765625 12.01953125 C1.82421631 12.78668457 1.30077637 13.55383789 0.76147461 14.34423828 C0.20081299 15.15876465 -0.35984863 15.97329102 -0.9375 16.8125 C-1.51943115 17.66054199 -2.1013623 18.50858398 -2.70092773 19.38232422 C-6.6639873 25.13057008 -10.71488587 30.80332646 -14.88647461 36.40185547 C-17.40773782 39.79332993 -19.85685253 43.22092715 -22.24609375 46.70703125 C-22.7887085 47.4944873 -23.33132324 48.28194336 -23.89038086 49.09326172 C-24.94520225 50.62949637 -25.99191894 52.1713347 -27.02954102 53.71923828 C-27.50447998 54.40872559 -27.97941895 55.09821289 -28.46875 55.80859375 C-29.09426758 56.73369751 -29.09426758 56.73369751 -29.73242188 57.67749023 C-30.15072266 58.11391846 -30.56902344 58.55034668 -31 59 C-34.57575896 59 -36.05295935 57.91159393 -39 56 C-34.82289246 49.1427006 -30.33262782 42.6355537 -25.55053711 36.19433594 C-19.77752313 28.39554901 -14.25525035 20.42194 -8.71289062 12.45849609 C-5.81593804 8.30052681 -2.9077598 4.15041564 0 0 Z " fill="#FB8705" transform="translate(97,50)"/>
<path d="M0 0 C1.875 1.625 1.875 1.625 3 4 C2.87102097 7.15998614 2.4677502 9.23682863 0.8125 11.9375 C-1 13 -1 13 -4.0625 12.8125 C-7 12 -7 12 -9 10 C-9.375 6.5625 -9.375 6.5625 -9 3 C-6.37083783 -0.01866768 -3.91948001 -0.70349641 0 0 Z " fill="#FEF9F3" transform="translate(67,60)"/>
<path d="M0 0 C2.9375 -0.4375 2.9375 -0.4375 6 0 C7.9375 1.5625 7.9375 1.5625 9 4 C8.67272727 10.32727273 8.67272727 10.32727273 6 13 C2.70731068 13.51989831 1.39917138 13.27311726 -1.375 11.375 C-3 9 -3 9 -2.875 5.9375 C-2 3 -2 3 0 0 Z " fill="#FEFAF5" transform="translate(95,88)"/>
</svg>
